<?xml version="1.0" encoding="UTF-8"?>
<svg width="20" height="20" viewBox="0 0 20 20" xmlns="http://www.w3.org/2000/svg">
    <g fill="none" fill-rule="evenodd">
        <path d="M17.6 10.2c0-.6-.1-1.2-.2-1.8H10v3.4h4.3c-.2 1-.8 1.9-1.7 2.5v2.1h2.8c1.6-1.5 2.5-3.6 2.5-6.2z"
            fill="#4285F4" />
        <path
            d="M10 18c2.3 0 4.3-.8 5.7-2.1l-2.8-2.1c-.8.5-1.8.8-2.9.8-2.2 0-4.1-1.5-4.8-3.5H2.4v2.2C3.8 15.9 6.7 18 10 18z"
            fill="#34A853" />
        <path d="M5.2 11.1c-.2-.5-.3-1.1-.3-1.6 0-.6.1-1.1.3-1.6V5.7H2.4C1.9 6.9 1.6 8.4 1.6 10s.3 3.1.8 4.3l2.8-2.2z"
            fill="#FBBC05" />
        <path
            d="M10 4.8c1.2 0 2.3.4 3.2 1.2l2.4-2.4C14.1 2.3 12.2 1.5 10 1.5c-3.3 0-6.2 2.1-7.6 5l2.8 2.2c.7-2 2.6-3.5 4.8-3.5z"
            fill="#EA4335" />
    </g>
</svg>